<svg xmlns="http://www.w3.org/2000/svg" viewBox="0 0 413.06 191.45"><defs><style>.cls-1,.cls-2{fill:#231815;stroke:#231815;}.cls-1,.cls-2,.cls-3,.cls-4{stroke-linecap:square;}.cls-1,.cls-2,.cls-3,.cls-4,.cls-5{stroke-linejoin:round;}.cls-1{stroke-width:13.13px;}.cls-2{stroke-width:13.06px;}.cls-3,.cls-4,.cls-5{fill:#e60012;stroke:#e60012;}.cls-3{stroke-width:4.69px;}.cls-4{stroke-width:4.25px;}.cls-5{stroke-linecap:round;stroke-width:2.43px;}.cls-6{fill:#ffef00;}</style></defs><g id="レイヤー_2" data-name="レイヤー 2"><g id="デザイン"><path class="cls-1" d="M126.41,25.12c6.27.41,54.08-4.6,56.6-6.19,11.49-7.22,33.83,4.95,28,14-3.76,5.84-21.77,3.78-31.16,5.43s-23.56,4.9-26.32,5.37C137.69,46.37,124.33,37.29,126.41,25.12Z"/><path class="cls-2" d="M7.25,63.42c8.31,2.87,82.74-2.86,86-4.52,13.36-6.73,33.15-.41,36.1,12.11,2.75,11.7-22.69,8.85-27.38,9.09C98.87,80.26,44.09,83,35.3,86,17.43,92.15,3.1,73.48,7.25,63.42Z"/><path class="cls-2" d="M118.92,51.89c10-10.67,37.82,1.44,35.32,19.09s-20.1,15-20.57,6.16S126.19,53.54,118.92,51.89Z"/><path class="cls-2" d="M189.56,41.63C194.34,39,217,43,216,53.54c-1.25,13.13-33.16,24.36-37.11,21.69,5.11-4.86,10-13.07,11-18.41S185,46.15,189.56,41.63Z"/><path class="cls-2" d="M107.29,82.89c9.35-.62,84.72-2.79,90.17-6,14.13-8.21,44.26,2.67,34.49,17.66-5.83,8.93-27.77,2.08-37.19,1.43-8.94-.61-45.92,1.85-52.57,3.9S113.11,108.13,107.29,82.89Z"/><path class="cls-2" d="M155.49,38.4c5.4,10.88,1.82,50.62,2.7,64.81.62,10.05-1.45,30.38,8.15,38.94,4.73-1.38,10.34-12.26,11.59-22.52s2.7-30.59,2.91-41.87,5.81-37.16-6.65-43.11S155.9,37.42,155.49,38.4Z"/><path class="cls-2" d="M272.53,85.5c-16.85,9.28-42.13,4.79-37.31-11.18,1.24,2.26,10.8,4.11,19.11.82,1.73-.68,9.35-4.83,10.8-9.44s-.41-16.53-32.62,2.67c-10.29,6.14-15-3.81-15.37-6.57,3.53-4.31,15.37-20.52,18.49-28.73S243.32,15,234.8,8.44c4.16-3.69,24.94-2.67,25.34,8.82S244.36,44.15,242.28,50.1c8.81-3.61,31.58-8.93,40.37,2.09C294.46,67,282.12,80.22,272.53,85.5Z"/><path class="cls-2" d="M207.33,35.51c6.95.38,51.47-7.72,55.45-10.21s26.13.83,21.86,11.64c-2.23,5.64-15,3.53-27.68,4-11.1.37-27.35,4.52-31.58,6.13C220.48,48.88,204.13,45.36,207.33,35.51Z"/><path class="cls-2" d="M266.41,95.62c6.55-2.15,31.93-14.47,36-14.88,16-1.58,28.37,11.31,22.45,21.75-10.09,17.8-31,1.55-31.08-3.84,0-3.78,2.48-4.49,5.76-2.77s12.23,3.72,10.27-2-19.63-.18-29.23,9.75C276.1,108.26,263,103.63,266.41,95.62Z"/><path class="cls-2" d="M296.76,70.17c2.84-1.51,12.89.43,12,6.9s-1.75,9.71-8.08,10.14-9.82-2.59-7.64-5.61,2.62-3.45,2-5.82S294.8,71.9,296.76,70.17Z"/><path class="cls-2" d="M278.8,66.66c6.12,1.08,12.73,4.16,13.16,10.79.25,3.88,1.91,37.11,4.58,41.47,1.84,3-4.81,19.23-12.16,1.08-6.45-15.9-4.46-26.81-5.65-35C277.65,77.46,269,73.41,278.8,66.66Z"/><path class="cls-2" d="M291.74,165c-6.67-.75-12.48-7.49-7.59-15.94,5-8.62,22.24-32.84,33.45-44.75S330.9,90,328,78.07c28.26,3.7,28.59,17.05,10.39,36.13-20.36,21.34-21.2,21.34-24.1,26.68,9.56-6.16,21.23-23.14,44,2.05,14.81,16.35,40.11-7,33.66-19.5,7.48,3.7,14.07,9.84,14.54,23.2.42,11.69-14.92,35.27-44.87,21-27.48-13.06-19.22-28.87-56.67-8.27C299.79,162.26,296.14,165.54,291.74,165Z"/><path class="cls-3" d="M7.25,63.42c8.31,2.87,82.74-2.86,86-4.52,13.36-6.73,33.15-.41,36.1,12.11,2.75,11.7-22.69,8.85-27.38,9.09C98.87,80.26,44.09,83,35.3,86,17.43,92.15,3.1,73.48,7.25,63.42Z"/><path class="cls-3" d="M126.4,25.42c6.23.41,53.8-4.58,56.31-6.16,11.42-7.18,33.65,4.92,27.88,13.89-3.74,5.8-21.65,3.76-31,5.4s-23.43,4.87-26.18,5.34C137.62,46.56,124.32,37.53,126.4,25.42Z"/><path class="cls-3" d="M118.92,51.89c10-10.67,37.82,1.44,35.32,19.09s-20.1,15-20.57,6.16S126.19,53.54,118.92,51.89Z"/><path class="cls-3" d="M189.56,41.63C194.34,39,217,43,216,53.54c-1.25,13.13-33.16,24.36-37.11,21.69,5.11-4.86,10-13.07,11-18.41S185,46.15,189.56,41.63Z"/><path class="cls-3" d="M107.29,82.89c9.35-.62,84.72-2.79,90.17-6,14.13-8.21,44.26,2.67,34.49,17.66-5.83,8.93-27.77,2.08-37.19,1.43-8.94-.61-45.92,1.85-52.57,3.9S113.11,108.13,107.29,82.89Z"/><path class="cls-3" d="M155.49,38.4c5.4,10.88,1.82,50.62,2.7,64.81.62,10.05-1.45,30.38,8.15,38.94,4.73-1.38,10.34-12.26,11.59-22.52s2.7-30.59,2.91-41.87,5.81-37.16-6.65-43.11S155.9,37.42,155.49,38.4Z"/><path class="cls-3" d="M272.53,85.5c-16.85,9.28-42.13,4.79-37.31-11.18,1.24,2.26,10.8,4.11,19.11.82,1.73-.68,9.35-4.83,10.8-9.44s-.41-16.53-32.62,2.67c-10.29,6.14-15-3.81-15.37-6.57,3.53-4.31,15.37-20.52,18.49-28.73S243.32,15,234.8,8.44c4.16-3.69,24.94-2.67,25.34,8.82S244.36,44.15,242.28,50.1c8.81-3.61,31.58-8.93,40.37,2.09C294.46,67,282.12,80.22,272.53,85.5Z"/><path class="cls-4" d="M207.33,35.51c6.95.38,51.47-7.72,55.45-10.21s26.13.83,21.86,11.64c-2.23,5.64-15,3.53-27.68,4-11.1.37-27.35,4.52-31.58,6.13C220.48,48.88,204.13,45.36,207.33,35.51Z"/><path class="cls-3" d="M266.41,95.62c6.55-2.15,31.93-14.47,36-14.88,16-1.58,28.37,11.31,22.45,21.75-10.09,17.8-31,1.55-31.08-3.84,0-3.78,2.48-4.49,5.76-2.77s12.23,3.72,10.27-2-19.63-.18-29.23,9.75C276.1,108.26,263,103.63,266.41,95.62Z"/><path class="cls-3" d="M296.76,70.17c2.84-1.51,12.89.43,12,6.9s-1.75,9.71-8.08,10.14-9.82-2.59-7.64-5.61,2.62-3.45,2-5.82S294.8,71.9,296.76,70.17Z"/><path class="cls-3" d="M278.8,66.66c6.12,1.08,12.73,4.16,13.16,10.79.25,3.88,1.91,37.11,4.58,41.47,1.84,3-4.81,19.23-12.16,1.08-6.45-15.9-4.46-26.81-5.65-35C277.65,77.46,269,73.41,278.8,66.66Z"/><path class="cls-3" d="M291.74,165c-6.67-.75-12.48-7.49-7.59-15.94,5-8.62,22.24-32.84,33.45-44.75S330.9,90,328,78.07c28.26,3.7,28.59,17.05,10.39,36.13-20.36,21.34-21.2,21.34-24.1,26.68,9.56-6.16,21.23-23.14,44,2.05,14.81,16.35,40.11-7,33.66-19.5,7.48,3.7,14.07,9.84,14.54,23.2.42,11.69-14.92,35.27-44.87,21-27.48-13.06-19.22-28.87-56.67-8.27C299.79,162.26,296.14,165.54,291.74,165Z"/><path class="cls-5" d="M192.6,184.53c7.19-7.79,6.26-21,6-32.74-.34-1-3.2-2.59-1.33-3.46,2.73-2,3.86,2.34,5.85,3.9.6,2.16-.6,4.5-.2,6.84a13,13,0,0,0,2.27-4.15c-.07-.7-1-1.48-.47-2.08,2.53,0,3.72,5.19,6.59,2.69a9,9,0,0,0,.2-5.46c-.33-.87-1.13-1.3-1.67-1.91,1-.95,2.2-1.56,3.47-1,1.26,1,2.66,1.73,3.59,3.37.8,1.3-1.6,3.81.26,3.64.74-.26,1.27-1.38,2.14-1.56,1.59.35,3.26.79,4.32,2.34.6,4.42-7.85,1-2.73,5.29.6,1.38,1.2-.18,2.13.6.73.78,1.8,1,2.26,2.34a3.23,3.23,0,0,1-.47,2.17c-1.66,2.08-5.45-2-6,2.68-.73.35-1.39,2.16,0,1.21.74,0,1.47-.86,2.07,0a5,5,0,0,1,2.13,2.52c-1.27,3.11-4.86,1.29-6.92,2.33,2.39,2.43.52,6,1.06,9.18a7.46,7.46,0,0,0,4.92-.6c.73-1.47.54-3.38.8-5.11h.27c1.2,2.16,1.26,4.85,2.86,6.67a3,3,0,0,1-1.33,3.29c-3.33,1.47-8.39,1.9-10.79-1.91-1.39-3.12-.39-7.54-.92-11.18a3.4,3.4,0,0,0-2.87.44,6.39,6.39,0,0,1,2,3.12c-.07.43.07,1-.2,1.38-2.2,3.81-5.33,10-9.59,8.31l-.26-.35a19,19,0,0,0,3.72-5.28c-.59.17-1.39-.26-2.06-.35-1.19-1.47-1.79-3.29-2.72-4.93-1.6,4-4.13,9.17-8.26,8.39C192.6,185.05,192.6,184.79,192.6,184.53Zm1.53-27c1.07,4.15-2.26,7.44-.46,11.26.46.69.73,2.16,1.79,1.56s1.27-1.82,1.67-3A12.88,12.88,0,0,0,195,156.3c-.33-.26-1.4-.87-1.19.43C194.14,156.82,193.81,157.34,194.13,157.51Zm8.05,15.33a11.57,11.57,0,0,1,3.46,2.95c1.33,1.12.67,3.81.6,5.11a12.83,12.83,0,0,0,1.67-3.38c1.26-3.81-2.86-3-3.8-5.63,1.8-.35,3.67-.78,5.26-1.12-.26-.09-.46-.52-.73-.78-1-3.29-4.33-.78-5.72-3.73C202.72,168.42,202.25,170.5,202.18,172.84Zm.74-8.92c1.4-.34,3-.08,4.19-.95.2-.69-.26-1-.4-1.56-1.33-.26-2.53,1-3.79,1.73Zm4.53-3.89c1.46.17,2.46,2,3.86,2.34,1,.17,1.26-.87.8-1.74,0-2.68-2.4-.43-3.2-2C208.18,158.21,207.91,159.42,207.45,160ZM211,170.51c1.59.08,2.93-.78,4.46-.78a20.28,20.28,0,0,0,.33-3.9c-1.26.44-2.86,0-4.06.61A7.32,7.32,0,0,1,211,170.51ZM216,158.65c.46,1.21-1.54,3,0,2.94,1.46.26,1.06-2.08.93-3.12C216.56,158.56,216.23,158.3,216,158.65Z"/><path class="cls-5" d="M227.2,166.63a41.62,41.62,0,0,0,10.06-11.25c-1.87,0-3.53,2.42-5.6,1.73-1.66-1.21-3.85-3.12-3.59-6.24,1.13-1,2.06,1,3.19,1.22a25.18,25.18,0,0,0,10-3.9c1.66,1,3.93.79,4.79,3.3.07,3.37-2.86,4-4.32,6.06-1.54,1.81-3.13,3.37-4.67,5.19,3.13.26,6-1.12,8.86-2.33,1.66.52,3.39,1.12,4.32,3.38.67,1.82-1,2.07-1.59,2.85-3.14,1.73-6.79,3.29-8.39,7.8-1.6,6.14,6.18,7.19,3.85,12.9-1,1.21-2.39.6-3.59.17a10,10,0,0,1-4.19-6.41,19.75,19.75,0,0,1,2.4-12.64c-.34-.43-.8-.09-1.2,0-3.2,1.38-6.46,2.59-9.59,4.24-1.79-.27-3.86-.87-4.65-3.3C223.21,166.72,226.14,168.19,227.2,166.63Z"/><path class="cls-5" d="M253.21,153.05c-.4-.61-1.27-1.3-.74-2.16,2.2-1,3.33,2,4.46,3.72,2.66,5.63-1.13,10.74-.73,16.54a9.53,9.53,0,0,0,.13,3.12c1.19-1.21,1.53-3.2,2.39-4.5a3.52,3.52,0,0,1,.47.6c-.07,4.85-1.53,9.1-1.8,13.86a4.08,4.08,0,0,1-1.8,2.34c-1.13.43-1.73-.7-2.53-1.22-1.86-4.67-.79-11.08-.92-16.54C252.27,163.44,253.8,158.59,253.21,153.05Zm14.7,6.42a4,4,0,0,0,2.4-1.13c-.33-2.77.93-6-1.53-7.27-.2-.52.33-1,.6-1.13,2.06-.69,3.86.95,5.12,2.69,1.2,1.38,0,4.41,1.6,5.11a3.44,3.44,0,0,1,2.73,2.34,2.35,2.35,0,0,1-.94,2.51c-.86.52-2.26-.35-3,.78-.34,4.76.06,9.87-.27,14.63,1.73,1.91,4.85,3.9,3.86,7.62-2.13,2.52-4.13-1.38-6.13-2.34-.8.44-1.86,1.3-2.86,1.91-1.4.69-3.06,1.38-4.79.77-1.6-1.73-2.33-4.24-2.8-6.84-.19-2.77,2.2-3.11,3.6-4.07a7.42,7.42,0,0,1,4.33.44,1.41,1.41,0,0,0,.26-.43c.47-3.56-.19-7,0-10.74a55.37,55.37,0,0,1-7.58.43c-.67.17-1,1.12-1.8.77s-.4-1.64-.2-2.16C262.45,160.76,265.45,160.68,267.91,159.47Zm6.39-7.79c1.47,1.56,2.26,3.81,4.19,3.72.6-.35,1.4-.78,1.07-2a3.57,3.57,0,0,0-2.86-2.51C275.77,151.16,274.57,150.29,274.3,151.68Zm1.53-3a10.25,10.25,0,0,0,4.2,2.6,2,2,0,0,0,1.06-1.82,3,3,0,0,0-1.53-1.9A3.13,3.13,0,0,0,275.83,148.73Z"/><path class="cls-5" d="M124.42,175.14a77.17,77.17,0,0,0,5.07-12.49c-.27-.61-.33-2.52-1.33-1.56-2.34,1-4.4-1.48-6.33-3.13v-1c4.26,0,8.06-1.47,12.19-1.73.67-1.82,0-3.91,0-5.9-.4-.78-1.2-1-1.54-1.74,2.6-2,5.34.35,7.54,1.74a3,3,0,0,1,.39,2.78c-.33.86-.66,1.73-1,2.51,2.34-.26,5.54.87,7.34-1.73,1.8.7,3.8.78,5.06,2.95a4.37,4.37,0,0,1-.4,2.52c-3.67,1.73-7-.87-11,0-3.2.26-6.26,1-9.4,1.56-.33.26-1.33.87-.33,1.13,1.27.95,3,1.3,3.6,3.38.06,2.69-2.13,3.13-2.87,5.47-.93,1.3.47,2.34.8,3.47.4,3.9-.14,7.8-.2,11.71.66.78,1.33-.78,2-1.13,1.33-1.82,2.8-3.55,4-5.46-.87-2.52-2.87-3.21-4.6-3.91.33-1.38,1.6-1.38,2.53-1.82,1.47.26,2.53,1.91,3.87,2.35,1.33-1.22-.47-2.35-.73-3.47-1.54-3.65-3.6,1.12-5.54.34a1,1,0,0,1,0-1.13c1.34-3,3.14-6,3.87-9.37-.2-.52-.73-1-.73-1.56,1.8-2.25,3.27,1,4.8,1.57.53,1,1.46,1.47,2.26.95,1.34-2.43,2.87.44,4.34.61.6.61,1.33,1,1.66,1.91.47,2.17-1.33,2.69-2.13,3.9a91.93,91.93,0,0,1-4,9.37c3.46,4.34,8.39,4.6,11.66,9.2-2.27,2.34-6.07,1.13-9,1.21-2-1.56-3.6-4.25-5.27-6.51-2.26,3.47-5.53,5.47-9,5.12-.87.86-.54,2.86-1.94,3-1.73-.35-2.06-2.87-2.66-4.52a54.4,54.4,0,0,0,.87-8.76c-.07-.17-.2-.26-.27-.43-2.2,2.77-4.47,5.81-7.53,5.11A71.9,71.9,0,0,1,124.42,175.14Zm14.8-7.19c1.2-.87,2.47.26,3.47.17.13-.6,1.2-2,.33-1.91A2.74,2.74,0,0,0,139.22,168Z"/><path class="cls-5" d="M151.53,179.84a55.89,55.89,0,0,0,5.41-20c-1.34-1-3-2.08-3.6-4.16,3.73-.09,7.2-1.21,10.93-1.3.4-1.3-.06-3.12-.13-4.68-.47-1.22-2.67-1.48-1.93-3.13a9.16,9.16,0,0,1,8.06,1.91,3.7,3.7,0,0,1,.34,2.78c-.87.35-.27,1.48-.61,2.08.07.17.2.26.27.44,1.87-.7,4.07-.09,5.73-1.39a6.55,6.55,0,0,1,4.47,3,2.84,2.84,0,0,1-1.47,2.95c-3.6-.35-7.6-1.22-11.13,0,.4,1,1.67,1.21,2.4,2.08,1.6.87-.8,4.51,1.53,3.56a3.29,3.29,0,0,1,3.6-.78c.87.69,2,.95,2.53,2.34-.06,3.47-3.46,2.17-5.26,3.3-.94.17-2.27-1.22-2.67.17-.07,1.39-.73,2.34-.6,3.73,2.06,1,3.87-1.13,5.66-.35,1.67,1.65,4.61,2.69,4.67,6-1.73.52-2.2,3-3,4.51a3.68,3.68,0,0,1,.27,2.78c-2.21,2.08-5,.78-7.81,1.12-1.33.61-3.46-.61-4.2,1.74-5.06,0-3.66-7.38-4.79-11.46a4.93,4.93,0,0,0-2.07-1.82c-1.87,4.07-4.87,9.63-9,8.84C149.8,182.53,150.87,181.31,151.53,179.84Zm9-11.71c.4,2-4.2,7.46.47,5.47,1.46,1,3-.17,4.47-.35-.47-4.33.33-8.76-.13-13.1-.27-.52-.47-1-.74-1.56a19.14,19.14,0,0,0-3.93.78c.27,1,1.47,1.39,1.2,2.52C161.53,164.06,160.94,166.05,160.53,168.13Zm4.34,9.2c.79,1.65.26,4,1.06,5.64a24.15,24.15,0,0,0,5.67-.78,54.25,54.25,0,0,0,.8-5.81C169.66,175.94,167.4,177.07,164.87,177.33Z"/><path class="cls-5" d="M189.69,169.44a5.09,5.09,0,0,1,.06,2.9c-.31,1-3.66,10.73-5.56,10.66-1.21,0-1.49-1.42-1.81-2.38-.27-.8-.27-1.38-1.34-2-.36-.62-.85-3.49,1.21-6.61,1.19-1.8,3.85-4.3,6.66-4.3,3.78,0,6.1,4.32,6.2,6.73.09,2.17.26,4.7-1.81,7.27-1,1.29-4.63,3.43-5.84,1.79a9.4,9.4,0,0,0,4.49-7.2c.48-4.35-1.54-5.85-2.9-5.58s-5,.51-6.06,6.73c.56.55.86,1.55,1.18.78s1.11-2.19,1.71-3.65a14,14,0,0,0,1.27-4.39Z"/><path class="cls-6" d="M7.25,63.42c8.31,2.87,82.74-2.86,86-4.52,13.36-6.73,33.15-.41,36.1,12.11,2.75,11.7-22.69,8.85-27.38,9.09C98.87,80.26,44.09,83,35.3,86,17.43,92.15,3.1,73.48,7.25,63.42Z"/><path class="cls-6" d="M126.4,25.42c6.23.41,53.8-4.58,56.31-6.16,11.42-7.18,33.65,4.92,27.88,13.89-3.74,5.8-21.65,3.76-31,5.4s-23.43,4.87-26.18,5.34C137.62,46.56,124.32,37.53,126.4,25.42Z"/><path class="cls-6" d="M118.92,51.89c10-10.67,37.82,1.44,35.32,19.09s-20.1,15-20.57,6.16S126.19,53.54,118.92,51.89Z"/><path class="cls-6" d="M189.56,41.63C194.34,39,217,43,216,53.54c-1.25,13.13-33.16,24.36-37.11,21.69,5.11-4.86,10-13.07,11-18.41S185,46.15,189.56,41.63Z"/><path class="cls-6" d="M107.29,82.89c9.35-.62,84.72-2.79,90.17-6,14.13-8.21,44.26,2.67,34.49,17.66-5.83,8.93-27.77,2.08-37.19,1.43-8.94-.61-45.92,1.85-52.57,3.9S113.11,108.13,107.29,82.89Z"/><path class="cls-6" d="M155.49,38.4c5.4,10.88,1.82,50.62,2.7,64.81.62,10.05-1.45,30.38,8.15,38.94,4.73-1.38,10.34-12.26,11.59-22.52s2.7-30.59,2.91-41.87,5.81-37.16-6.65-43.11S155.9,37.42,155.49,38.4Z"/><path class="cls-6" d="M272.53,85.5c-16.85,9.28-42.13,4.79-37.31-11.18,1.24,2.26,10.8,4.11,19.11.82,1.73-.68,9.35-4.83,10.8-9.44s-.41-16.53-32.62,2.67c-10.29,6.14-15-3.81-15.37-6.57,3.53-4.31,15.37-20.52,18.49-28.73S243.32,15,234.8,8.44c4.16-3.69,24.94-2.67,25.34,8.82S244.36,44.15,242.28,50.1c8.81-3.61,31.58-8.93,40.37,2.09C294.46,67,282.12,80.22,272.53,85.5Z"/><path class="cls-6" d="M207.33,35.51c6.95.38,51.47-7.72,55.45-10.21s26.13.83,21.86,11.64c-2.23,5.64-15,3.53-27.68,4-11.1.37-27.35,4.52-31.58,6.13C220.48,48.88,204.13,45.36,207.33,35.51Z"/><path class="cls-6" d="M266.41,95.62c6.55-2.15,31.93-14.47,36-14.88,16-1.58,28.37,11.31,22.45,21.75-10.09,17.8-31,1.55-31.08-3.84,0-3.78,2.48-4.49,5.76-2.77s12.23,3.72,10.27-2-19.63-.18-29.23,9.75C276.1,108.26,263,103.63,266.41,95.62Z"/><path class="cls-6" d="M296.76,70.17c2.84-1.51,12.89.43,12,6.9s-1.75,9.71-8.08,10.14-9.82-2.59-7.64-5.61,2.62-3.45,2-5.82S294.8,71.9,296.76,70.17Z"/><path class="cls-6" d="M278.8,66.66c6.12,1.08,12.73,4.16,13.16,10.79.25,3.88,1.91,37.11,4.58,41.47,1.84,3-4.81,19.23-12.16,1.08-6.45-15.9-4.46-26.81-5.65-35C277.65,77.46,269,73.41,278.8,66.66Z"/><path class="cls-6" d="M291.74,165c-6.67-.75-12.48-7.49-7.59-15.94,5-8.62,22.24-32.84,33.45-44.75S330.9,90,328,78.07c28.26,3.7,28.59,17.05,10.39,36.13-20.36,21.34-21.2,21.34-24.1,26.68,9.56-6.16,21.23-23.14,44,2.05,14.81,16.35,40.11-7,33.66-19.5,7.48,3.7,14.07,9.84,14.54,23.2.42,11.69-14.92,35.27-44.87,21-27.48-13.06-19.22-28.87-56.67-8.27-5.19,2.86-8.84,6.14-13.24,5.63"/><path class="cls-6" d="M192.6,184.53c7.19-7.79,6.26-21,6-32.74-.34-1-3.2-2.59-1.33-3.46,2.73-2,3.86,2.34,5.85,3.9.6,2.16-.6,4.5-.2,6.84a13,13,0,0,0,2.27-4.15c-.07-.7-1-1.48-.47-2.08,2.53,0,3.72,5.19,6.59,2.69a9,9,0,0,0,.2-5.46c-.33-.87-1.13-1.3-1.67-1.91,1-.95,2.2-1.56,3.47-1,1.26,1,2.66,1.73,3.59,3.37.8,1.3-1.6,3.81.26,3.64.74-.26,1.27-1.38,2.14-1.56,1.59.35,3.26.79,4.32,2.34.6,4.42-7.85,1-2.73,5.29.6,1.38,1.2-.18,2.13.6.73.78,1.8,1,2.26,2.34a3.23,3.23,0,0,1-.47,2.17c-1.66,2.08-5.45-2-6,2.68-.73.35-1.39,2.16,0,1.21.74,0,1.47-.86,2.07,0a5,5,0,0,1,2.13,2.52c-1.27,3.11-4.86,1.29-6.92,2.33,2.39,2.43.52,6,1.06,9.18a7.46,7.46,0,0,0,4.92-.6c.73-1.47.54-3.38.8-5.11h.27c1.2,2.16,1.26,4.85,2.86,6.67a3,3,0,0,1-1.33,3.29c-3.33,1.47-8.39,1.9-10.79-1.91-1.39-3.12-.39-7.54-.92-11.18a3.4,3.4,0,0,0-2.87.44,6.39,6.39,0,0,1,2,3.12c-.07.43.07,1-.2,1.38-2.2,3.81-5.33,10-9.59,8.31l-.26-.35a19,19,0,0,0,3.72-5.28c-.59.17-1.39-.26-2.06-.35-1.19-1.47-1.79-3.29-2.72-4.93-1.6,4-4.13,9.17-8.26,8.39C192.6,185.05,192.6,184.79,192.6,184.53Zm1.53-27c1.07,4.15-2.26,7.44-.46,11.26.46.69.73,2.16,1.79,1.56s1.27-1.82,1.67-3A12.88,12.88,0,0,0,195,156.3c-.33-.26-1.4-.87-1.19.43C194.14,156.82,193.81,157.34,194.13,157.51Zm8.05,15.33a11.57,11.57,0,0,1,3.46,2.95c1.33,1.12.67,3.81.6,5.11a12.83,12.83,0,0,0,1.67-3.38c1.26-3.81-2.86-3-3.8-5.63,1.8-.35,3.67-.78,5.26-1.12-.26-.09-.46-.52-.73-.78-1-3.29-4.33-.78-5.72-3.73C202.72,168.42,202.25,170.5,202.18,172.84Zm.74-8.92c1.4-.34,3-.08,4.19-.95.2-.69-.26-1-.4-1.56-1.33-.26-2.53,1-3.79,1.73Zm4.53-3.89c1.46.17,2.46,2,3.86,2.34,1,.17,1.26-.87.8-1.74,0-2.68-2.4-.43-3.2-2C208.18,158.21,207.91,159.42,207.45,160ZM211,170.51c1.59.08,2.93-.78,4.46-.78a20.28,20.28,0,0,0,.33-3.9c-1.26.44-2.86,0-4.06.61A7.32,7.32,0,0,1,211,170.51ZM216,158.65c.46,1.21-1.54,3,0,2.94,1.46.26,1.06-2.08.93-3.12C216.56,158.56,216.23,158.3,216,158.65Z"/><path class="cls-6" d="M227.2,166.63a41.62,41.62,0,0,0,10.06-11.25c-1.87,0-3.53,2.42-5.6,1.73-1.66-1.21-3.85-3.12-3.59-6.24,1.13-1,2.06,1,3.19,1.22a25.18,25.18,0,0,0,10-3.9c1.66,1,3.93.79,4.79,3.3.07,3.37-2.86,4-4.32,6.06-1.54,1.81-3.13,3.37-4.67,5.19,3.13.26,6-1.12,8.86-2.33,1.66.52,3.39,1.12,4.32,3.38.67,1.82-1,2.07-1.59,2.85-3.14,1.73-6.79,3.29-8.39,7.8-1.6,6.14,6.18,7.19,3.85,12.9-1,1.21-2.39.6-3.59.17a10,10,0,0,1-4.19-6.41,19.75,19.75,0,0,1,2.4-12.64c-.34-.43-.8-.09-1.2,0-3.2,1.38-6.46,2.59-9.59,4.24-1.79-.27-3.86-.87-4.65-3.3C223.21,166.72,226.14,168.19,227.2,166.63Z"/><path class="cls-6" d="M253.21,153.05c-.4-.61-1.27-1.3-.74-2.16,2.2-1,3.33,2,4.46,3.72,2.66,5.63-1.13,10.74-.73,16.54a9.53,9.53,0,0,0,.13,3.12c1.19-1.21,1.53-3.2,2.39-4.5a3.52,3.52,0,0,1,.47.6c-.07,4.85-1.53,9.1-1.8,13.86a4.08,4.08,0,0,1-1.8,2.34c-1.13.43-1.73-.7-2.53-1.22-1.86-4.67-.79-11.08-.92-16.54C252.27,163.44,253.8,158.59,253.21,153.05Zm14.7,6.42a4,4,0,0,0,2.4-1.13c-.33-2.77.93-6-1.53-7.27-.2-.52.33-1,.6-1.13,2.06-.69,3.86.95,5.12,2.69,1.2,1.38,0,4.41,1.6,5.11a3.44,3.44,0,0,1,2.73,2.34,2.35,2.35,0,0,1-.94,2.51c-.86.52-2.26-.35-3,.78-.34,4.76.06,9.87-.27,14.63,1.73,1.91,4.85,3.9,3.86,7.62-2.13,2.52-4.13-1.38-6.13-2.34-.8.44-1.86,1.3-2.86,1.91-1.4.69-3.06,1.38-4.79.77-1.6-1.73-2.33-4.24-2.8-6.84-.19-2.77,2.2-3.11,3.6-4.07a7.42,7.42,0,0,1,4.33.44,1.41,1.41,0,0,0,.26-.43c.47-3.56-.19-7,0-10.74a55.37,55.37,0,0,1-7.58.43c-.67.17-1,1.12-1.8.77s-.4-1.64-.2-2.16C262.45,160.76,265.45,160.68,267.91,159.47Zm-3.2,19.91c.47.78.87,1.91,1.8,1.56.87-.52,1.06-1.47,0-1.82C266,179,265,178.69,264.71,179.38Zm9.59-27.7c1.47,1.56,2.26,3.81,4.19,3.72.6-.35,1.4-.78,1.07-2a3.57,3.57,0,0,0-2.86-2.51C275.77,151.16,274.57,150.29,274.3,151.68Zm1.53-3a10.25,10.25,0,0,0,4.2,2.6,2,2,0,0,0,1.06-1.82,3,3,0,0,0-1.53-1.9A3.13,3.13,0,0,0,275.83,148.73Z"/><path class="cls-6" d="M124.42,175.14a77.17,77.17,0,0,0,5.07-12.49c-.27-.61-.33-2.52-1.33-1.56-2.34,1-4.4-1.48-6.33-3.13v-1c4.26,0,8.06-1.47,12.19-1.73.67-1.82,0-3.91,0-5.9-.4-.78-1.2-1-1.54-1.74,2.6-2,5.34.35,7.54,1.74a3,3,0,0,1,.39,2.78c-.33.86-.66,1.73-1,2.51,2.34-.26,5.54.87,7.34-1.73,1.8.7,3.8.78,5.06,2.95a4.37,4.37,0,0,1-.4,2.52c-3.67,1.73-7-.87-11,0-3.2.26-6.26,1-9.4,1.56-.33.26-1.33.87-.33,1.13,1.27.95,3,1.3,3.6,3.38.06,2.69-2.13,3.13-2.87,5.47-.93,1.3.47,2.34.8,3.47.4,3.9-.14,7.8-.2,11.71.66.78,1.33-.78,2-1.13,1.33-1.82,2.8-3.55,4-5.46-.87-2.52-2.87-3.21-4.6-3.91.33-1.38,1.6-1.38,2.53-1.82,1.47.26,2.53,1.91,3.87,2.35,1.33-1.22-.47-2.35-.73-3.47-1.54-3.65-3.6,1.12-5.54.34a1,1,0,0,1,0-1.13c1.34-3,3.14-6,3.87-9.37-.2-.52-.73-1-.73-1.56,1.8-2.25,3.27,1,4.8,1.57.53,1,1.46,1.47,2.26.95,1.34-2.43,2.87.44,4.34.61.6.61,1.33,1,1.66,1.91.47,2.17-1.33,2.69-2.13,3.9a91.93,91.93,0,0,1-4,9.37c3.46,4.34,8.39,4.6,11.66,9.2-2.27,2.34-6.07,1.13-9,1.21-2-1.56-3.6-4.25-5.27-6.51-2.26,3.47-5.53,5.47-9,5.12-.87.86-.54,2.86-1.94,3-1.73-.35-2.06-2.87-2.66-4.52a54.4,54.4,0,0,0,.87-8.76c-.07-.17-.2-.26-.27-.43-2.2,2.77-4.47,5.81-7.53,5.11A71.9,71.9,0,0,1,124.42,175.14Zm14.8-7.19c1.2-.87,2.47.26,3.47.17.13-.6,1.2-2,.33-1.91A2.74,2.74,0,0,0,139.22,168Z"/><path class="cls-6" d="M151.53,179.84a55.89,55.89,0,0,0,5.41-20c-1.34-1-3-2.08-3.6-4.16,3.73-.09,7.2-1.21,10.93-1.3.4-1.3-.06-3.12-.13-4.68-.47-1.22-2.67-1.48-1.93-3.13a9.16,9.16,0,0,1,8.06,1.91,3.7,3.7,0,0,1,.34,2.78c-.87.35-.27,1.48-.61,2.08.07.17.2.26.27.44,1.87-.7,4.07-.09,5.73-1.39a6.55,6.55,0,0,1,4.47,3,2.84,2.84,0,0,1-1.47,2.95c-3.6-.35-7.6-1.22-11.13,0,.4,1,1.67,1.21,2.4,2.08,1.6.87-.8,4.51,1.53,3.56a3.29,3.29,0,0,1,3.6-.78c.87.69,2,.95,2.53,2.34-.06,3.47-3.46,2.17-5.26,3.3-.94.17-2.27-1.22-2.67.17-.07,1.39-.73,2.34-.6,3.73,2.06,1,3.87-1.13,5.66-.35,1.67,1.65,4.61,2.69,4.67,6-1.73.52-2.2,3-3,4.51a3.68,3.68,0,0,1,.27,2.78c-2.21,2.08-5,.78-7.81,1.12-1.33.61-3.46-.61-4.2,1.74-5.06,0-3.66-7.38-4.79-11.46a4.93,4.93,0,0,0-2.07-1.82c-1.87,4.07-4.87,9.63-9,8.84C149.8,182.53,150.87,181.31,151.53,179.84Zm9-11.71c.4,2-4.2,7.46.47,5.47,1.46,1,3-.17,4.47-.35-.47-4.33.33-8.76-.13-13.1-.27-.52-.47-1-.74-1.56a19.14,19.14,0,0,0-3.93.78c.27,1,1.47,1.39,1.2,2.52C161.53,164.06,160.94,166.05,160.53,168.13Zm4.34,9.2c.79,1.65.26,4,1.06,5.64a24.15,24.15,0,0,0,5.67-.78,54.25,54.25,0,0,0,.8-5.81C169.66,175.94,167.4,177.07,164.87,177.33Z"/><path class="cls-6" d="M189.69,169.44a5.09,5.09,0,0,1,.06,2.9c-.31,1-3.66,10.73-5.56,10.66-1.21,0-1.49-1.42-1.81-2.38-.27-.8-.27-1.38-1.34-2-.36-.62-.85-3.49,1.21-6.61,1.19-1.8,3.85-4.3,6.66-4.3,3.78,0,6.1,4.32,6.2,6.73.09,2.17.26,4.7-1.81,7.27-1,1.29-4.63,3.43-5.84,1.79a9.4,9.4,0,0,0,4.49-7.2c.48-4.35-1.54-5.85-2.9-5.58s-5,.51-6.06,6.73c.56.55.86,1.55,1.18.78s1.11-2.19,1.71-3.65a14,14,0,0,0,1.27-4.39Z"/></g></g></svg>